# xmcd
#
# Track frame offsets:
#       150
#       12282
#       39245
#       55135
#       72525
#       101287
#       126945
#       143202
#       166955
#       184935
#       202730
#       224317
#       240812
#       258245
#       277860
#       297292
#
# Disc length: 4304 seconds
#
# Revision: 0
# Processed by: cddbd v1.4PL0 Copyright (c) Steve Scherf et al.
# Submitted via: WhereIsIt 3.24
#
DISCID=dd10ce10
DTITLE=The Blue Jays - Live at the Acoustic Ave Coffee House (FirstUnitedMeth
DTITLE=odistChurch-Ferndale,MI)
DYEAR=1900
DGENRE=
TTITLE0=Gospel Train
TTITLE1=Georgia On My Mind
TTITLE2=Tell Me It's A Lie
TTITLE3=Cacophony
TTITLE4=Stained Glass Windows
TTITLE5=Sidewalk Blues
TTITLE6=Family Tree
TTITLE7=Good To Come Home
TTITLE8=It's You
TTITLE9=Hey Day
TTITLE10=Sweet Summer Days
TTITLE11=One Reason
TTITLE12=Julie Ann
TTITLE13=My Children
TTITLE14=The Wind Blows
TTITLE15=Baby What You Want Me To Do
EXTD=Recorded Live at First United Methodist Church - Ferndale,MI\nblujmusi
EXTD=c@aol.com-Masteredby:industrial Music and Sound\nJoel Palmer-Lead vocals
EXTD=&guitar 2-5-6-8-11&14\nJim Nicholls-Lead vocals&guitar 3-7-10-13&15\nJ
EXTD=eff Royer-Lead vocals&bass 1-9&12\nAndrew Palmer-drums&percussion
EXTT0=
EXTT1=
EXTT2=
EXTT3=
EXTT4=
EXTT5=
EXTT6=
EXTT7=
EXTT8=
EXTT9=
EXTT10=
EXTT11=
EXTT12=
EXTT13=
EXTT14=
EXTT15=
PLAYORDER=
